# This file uses centimeters as units for non-parametric coordinates.

mtllib DroneTurret.mtl
g default
v -0.060283 0.155930 0.056601
v -0.038218 0.178073 0.056601
v 0.038218 0.178073 0.056601
v 0.060283 0.155930 0.056601
v 0.060283 0.071154 0.056601
v 0.038086 0.049056 0.056601
v -0.038086 0.049056 0.056601
v -0.060283 0.071154 0.056601
v -0.090566 0.071144 0.377597
v -0.090566 0.196602 0.377597
v -0.068280 0.218737 0.377597
v 0.068264 0.218737 0.377597
v 0.090566 0.196618 0.377597
v 0.090566 0.071128 0.377597
v 0.068393 0.049056 0.377597
v -0.068409 0.049056 0.377597
v -0.018871 0.049056 0.199995
v -0.037739 0.049056 0.218863
v -0.037739 0.049056 0.256605
v -0.018871 0.049056 0.275473
v 0.018871 0.049056 0.275473
v 0.037739 0.049056 0.256605
v 0.037739 0.049056 0.218863
v 0.018871 0.049056 0.199995
v -0.061570 0.206126 0.612013
v -0.057840 0.089259 0.642161
v -0.039954 0.228061 0.606354
v 0.039951 0.228061 0.606354
v 0.057840 0.089258 0.642161
v 0.061570 0.206128 0.612012
v 0.034976 0.067583 0.647753
v -0.034977 0.067583 0.647753
v -0.018871 0.018867 0.275473
v 0.018871 0.018867 0.275473
v -0.037739 0.018867 0.256605
v -0.037739 0.018867 0.218863
v -0.018871 0.018867 0.199995
v 0.018871 0.018867 0.199995
v 0.037739 0.018867 0.218863
v 0.037739 0.018867 0.256605
v -0.025315 0.205767 1.022644
v -0.025315 0.205767 1.143399
v 0.025315 0.205767 1.143399
v 0.025315 0.205767 1.022644
v 0.050626 0.187791 1.022644
v 0.050626 0.151832 1.022644
v 0.025315 0.133856 1.022644
v -0.025315 0.133856 1.022644
v -0.050626 0.151832 1.022644
v -0.030189 0.154715 1.022644
v -0.015096 0.139622 1.022644
v 0.015096 0.139622 1.022644
v 0.030189 0.154715 1.022644
v 0.030189 0.184907 1.022644
v -0.050626 0.187791 1.022644
v 0.015096 0.200000 1.022644
v -0.015096 0.200000 1.022644
v -0.030189 0.184907 1.022644
v -0.050626 0.187791 1.143399
v -0.050626 0.151832 1.143399
v -0.025315 0.133856 1.143399
v 0.025315 0.133856 1.143399
v 0.050626 0.151832 1.143399
v 0.050626 0.187791 1.143399
v -0.015096 0.139622 0.689546
v -0.030189 0.154715 0.685653
v 0.015096 0.139622 0.689546
v 0.030189 0.154715 0.685653
v 0.030189 0.184907 0.677864
v 0.015096 0.200000 0.673970
v -0.015096 0.200000 0.673970
v -0.030189 0.184907 0.677864
v -0.071514 0.381133 0.627243
v -0.071514 0.018867 0.720698
v 0.071514 0.018867 0.720698
v 0.071514 0.381133 0.627243
v -0.143028 0.381133 0.594805
v 0.143028 0.381133 0.594805
v 0.143028 0.381133 0.534428
v 0.071514 0.381133 0.566866
v -0.071514 0.381133 0.566866
v -0.143028 0.381133 0.534428
v -0.143028 0.018867 0.688260
v -0.143028 0.018867 0.627882
v -0.071514 0.018867 0.660320
v 0.071514 0.018867 0.660320
v 0.143028 0.018867 0.627882
v 0.143028 0.018867 0.688260
vt 0.019978 0.552764
vt 0.019969 0.252613
vt 0.133392 0.252613
vt 0.096622 0.552764
vt 0.000000 0.552765
vt 0.000000 0.252613
vt 0.142003 0.033419
vt 0.036346 0.005229
vt 0.116641 0.552764
vt 0.153405 0.252613
vt 0.017289 0.000056
vt 0.161834 0.038710
vt 0.188431 0.300152
vt 0.188454 0.000000
vt 0.265098 0.000000
vt 0.301883 0.300152
vt 0.168476 0.300152
vt 0.168476 0.000000
vt 0.285117 0.000000
vt 0.321880 0.300152
vt 0.204821 0.547536
vt 0.310481 0.519345
vt 0.185767 0.552708
vt 0.329710 0.514055
vt 0.538200 0.952730
vt 0.510907 0.952730
vt 0.510907 0.917438
vt 0.538200 0.917438
vt 0.538200 0.970372
vt 0.510907 0.970372
vt 0.510907 0.899796
vt 0.538200 0.899796
vt 0.649734 0.952730
vt 0.622442 0.952730
vt 0.622442 0.917438
vt 0.649734 0.917438
vt 0.649734 0.970372
vt 0.622442 0.970372
vt 0.622442 0.899796
vt 0.649734 0.899796
vt 0.184728 0.941448
vt 0.184728 0.828534
vt 0.217237 0.828534
vt 0.217237 0.941448
vt 0.168476 0.828534
vt 0.168476 0.941448
vt 0.233489 0.828534
vt 0.233489 0.941448
vt 0.257127 1.000000
vt 0.257127 0.887086
vt 0.289637 0.887086
vt 0.289637 1.000000
vt 0.240876 1.000000
vt 0.240876 0.887086
vt 0.305888 1.000000
vt 0.305888 0.887086
vt 0.370364 0.560550
vt 0.370364 0.882941
vt 0.343068 0.882941
vt 0.343068 0.567833
vt 0.384009 0.556910
vt 0.384009 0.882941
vt 0.329423 0.882941
vt 0.329423 0.571474
vt 0.403814 0.872017
vt 0.403814 0.556909
vt 0.431110 0.556909
vt 0.431110 0.879300
vt 0.390169 0.868377
vt 0.390169 0.556909
vt 0.444755 0.556909
vt 0.444755 0.882941
vt 0.945414 0.342887
vt 1.000000 0.342887
vt 0.915510 0.681629
vt 0.860924 0.681629
vt 0.715689 0.342887
vt 0.770275 0.342887
vt 0.854765 0.681629
vt 0.800179 0.681629
vt 0.467858 0.213902
vt 0.591304 0.213902
vt 0.564140 0.514054
vt 0.495037 0.514054
vt 0.493467 0.000000
vt 0.565603 0.000074
vt 0.336756 0.300152
vt 0.364170 0.000000
vt 0.381542 0.134083
vt 0.364485 0.151725
vt 0.364485 0.187017
vt 0.381542 0.204659
vt 0.415664 0.204659
vt 0.460435 0.300152
vt 0.432722 0.187017
vt 0.432722 0.151725
vt 0.415664 0.134083
vt 0.433036 0.000000
vt 0.430165 0.552677
vt 0.367079 0.552702
vt 0.546128 0.917438
vt 0.563186 0.899796
vt 0.597308 0.899796
vt 0.614366 0.917438
vt 0.614366 0.952730
vt 0.597308 0.970372
vt 0.563186 0.970372
vt 0.546128 0.952730
vt 0.115644 0.941448
vt 0.115644 0.828534
vt 0.161418 0.828534
vt 0.161418 0.941448
vt 0.313275 1.000000
vt 0.313275 0.887086
vt 0.359049 0.887086
vt 0.359049 1.000000
vt 0.262512 0.868377
vt 0.262512 0.556909
vt 0.289808 0.556909
vt 0.289808 0.868377
vt 0.295968 0.882941
vt 0.295968 0.556910
vt 0.323263 0.556910
vt 0.323263 0.882941
vt 0.201767 0.824390
vt 0.172440 0.757520
vt 0.172440 0.623780
vt 0.201767 0.556910
vt 0.256353 0.556910
vt 0.227026 0.623780
vt 0.227026 0.757520
vt 0.256353 0.824390
vt 0.082368 0.824390
vt 0.111695 0.757520
vt 0.111695 0.623780
vt 0.082368 0.556910
vt 0.136954 0.556910
vt 0.166281 0.623780
vt 0.166281 0.757520
vt 0.136954 0.824390
vt 0.000000 0.849239
vt 0.019948 0.828534
vt 0.089051 0.828534
vt 0.109000 0.849239
vt 0.109000 0.928511
vt 0.088933 0.949174
vt 0.020067 0.949174
vt 0.000000 0.928511
vt 0.684956 0.935087
vt 0.657663 0.935087
vt 0.657663 0.899796
vt 0.684956 0.899796
vt 0.692884 0.899796
vt 0.720178 0.899796
vt 0.720178 0.935087
vt 0.692884 0.935087
vt 0.366108 0.910752
vt 0.382359 0.887086
vt 0.414869 0.887086
vt 0.431120 0.910752
vt 0.431120 0.958095
vt 0.414869 0.981762
vt 0.412262 0.962652
vt 0.425907 0.948539
vt 0.425907 0.920308
vt 0.412262 0.906196
vt 0.384966 0.906196
vt 0.382359 0.981762
vt 0.366108 0.958095
vt 0.371321 0.920308
vt 0.371321 0.948539
vt 0.384966 0.962652
vt 0.454759 0.994472
vt 0.438507 0.970805
vt 0.438507 0.923462
vt 0.454759 0.899796
vt 0.487268 0.899796
vt 0.503520 0.923462
vt 0.503520 0.970805
vt 0.487268 0.994472
vt 0.663614 0.338742
vt 0.663614 0.000000
vt 0.792922 0.000000
vt 0.792922 0.338742
vt 0.714620 0.112914
vt 0.700975 0.127027
vt 0.700975 0.155258
vt 0.714620 0.169371
vt 0.741916 0.169371
vt 0.755561 0.155258
vt 0.755561 0.127027
vt 0.741916 0.112914
vt 0.598961 0.000000
vt 0.598961 0.338742
vt 0.857575 0.000000
vt 0.857575 0.338742
vt 0.644876 0.895651
vt 0.644876 0.556909
vt 0.709529 0.556909
vt 0.709529 0.895651
vt 0.515568 0.895651
vt 0.515568 0.556909
vt 0.611822 0.850082
vt 0.632514 0.829831
vt 0.635886 0.720550
vt 0.616318 0.700053
vt 0.544101 0.700042
vt 0.524559 0.720552
vt 0.527930 0.829830
vt 0.548625 0.850083
vt 0.450915 0.556909
vt 0.450915 0.895651
vn 0.000000 0.000003 -1.000000
vn 0.000000 0.000003 -1.000000
vn 0.000000 0.000003 -1.000000
vn 0.000000 0.000003 -1.000000
vn 0.000000 0.000003 -1.000000
vn 0.000000 0.000003 -1.000000
vn 0.000000 0.000003 -1.000000
vn 0.000000 0.000003 -1.000000
vn -0.995579 0.000000 -0.093927
vn -0.999978 0.000000 0.006667
vn -0.999888 0.000000 0.014976
vn -0.995579 0.000000 -0.093927
vn -0.698081 0.699217 -0.154205
vn -0.698080 0.699217 -0.154205
vn -0.704049 0.706638 -0.070559
vn -0.704397 0.707143 -0.061432
vn 0.000000 0.995883 -0.090650
vn 0.000000 0.995883 -0.090650
vn 0.000000 0.992071 -0.125677
vn 0.000000 0.992071 -0.125677
vn 0.703763 0.706920 -0.070582
vn 0.697816 0.699480 -0.154213
vn 0.697816 0.699480 -0.154213
vn 0.704109 0.707427 -0.061462
vn 0.999978 0.000000 0.006666
vn 0.995579 0.000000 -0.093927
vn 0.995579 0.000000 -0.093927
vn 0.999888 0.000000 0.014975
vn 0.705241 -0.708545 0.024486
vn 0.703955 -0.707128 -0.066467
vn 0.703955 -0.707128 -0.066467
vn 0.705208 -0.708514 0.026256
vn 0.000000 -0.999255 0.038601
vn 0.000000 -0.999255 0.038601
vn 0.000000 -1.000000 -0.000000
vn 0.000000 -1.000000 -0.000000
vn 0.000000 -1.000000 -0.000000
vn 0.000000 -1.000000 -0.000000
vn 0.000000 -1.000000 -0.000000
vn 0.000000 -1.000000 -0.000000
vn 0.000000 -1.000000 -0.000000
vn 0.000000 -1.000000 -0.000000
vn 0.000000 -1.000000 -0.000000
vn 0.000000 -1.000000 -0.000000
vn -0.704210 -0.706871 -0.066491
vn -0.704210 -0.706871 -0.066491
vn -0.705504 -0.708283 0.024478
vn -0.705471 -0.708253 0.026251
vn -0.992436 0.000000 0.122763
vn -0.992436 0.000000 0.122763
vn 0.000000 0.999171 -0.040723
vn 0.000000 0.999170 -0.040723
vn 0.992436 0.000000 0.122763
vn 0.992436 0.000000 0.122763
vn 0.000000 -0.997657 0.068421
vn 0.000000 -0.997657 0.068421
vn -0.699222 -0.702115 0.134625
vn -0.699222 -0.702115 0.134625
vn -0.703515 0.708289 0.058247
vn -0.703515 0.708289 0.058247
vn 0.703204 0.708602 0.058196
vn 0.703204 0.708602 0.058196
vn 0.698956 -0.702382 0.134610
vn 0.698956 -0.702382 0.134610
vn 0.000000 0.000000 1.000000
vn 0.000000 0.000000 1.000000
vn 0.000000 0.000000 1.000000
vn 0.000000 0.000000 1.000000
vn -0.707106 0.000000 0.707108
vn -0.707106 0.000000 0.707108
vn -0.707106 0.000000 0.707108
vn -0.707106 0.000000 0.707108
vn 0.000000 -1.000000 0.000000
vn 0.000000 -1.000000 0.000000
vn 0.000000 -1.000000 0.000000
vn 0.000000 -1.000000 0.000000
vn 0.000000 -1.000000 0.000000
vn 0.000000 -1.000000 0.000000
vn 0.000000 -1.000000 0.000000
vn 0.000000 -1.000000 0.000000
vn 0.707106 0.000000 0.707108
vn 0.707106 0.000000 0.707108
vn 0.707106 0.000000 0.707108
vn 0.707106 0.000000 0.707108
vn -1.000000 0.000000 0.000000
vn -1.000000 0.000000 0.000000
vn -1.000000 0.000000 0.000000
vn -1.000000 0.000000 0.000000
vn -0.707103 0.000000 -0.707110
vn -0.707103 0.000000 -0.707110
vn -0.707103 0.000000 -0.707110
vn -0.707103 0.000000 -0.707110
vn 0.000000 0.000000 -1.000000
vn 0.000000 0.000000 -1.000000
vn 0.000000 0.000000 -1.000000
vn 0.000000 0.000000 -1.000000
vn 0.707103 0.000000 -0.707110
vn 0.707103 0.000000 -0.707110
vn 0.707103 0.000000 -0.707110
vn 0.707103 0.000000 -0.707110
vn 1.000000 0.000000 0.000000
vn 1.000000 0.000000 0.000000
vn 1.000000 0.000000 0.000000
vn 1.000000 0.000000 0.000000
vn 0.000000 1.000000 0.000000
vn 0.000000 1.000000 0.000000
vn 0.000000 1.000000 0.000000
vn 0.000000 1.000000 0.000000
vn -0.000001 0.000000 -1.000000
vn -0.000003 0.000000 -1.000000
vn -0.000003 0.000000 -1.000000
vn -0.000003 0.000000 -1.000000
vn -0.000003 0.000000 -1.000000
vn -0.000001 0.000000 -1.000000
vn -0.000002 0.000000 -1.000000
vn -0.000003 0.000000 -1.000000
vn -0.000003 0.000000 -1.000000
vn -0.000003 0.000000 -1.000000
vn -0.000003 0.000000 -1.000000
vn 0.000000 0.000000 -1.000000
vn 0.000000 0.000000 -1.000000
vn 0.000000 0.000000 -1.000000
vn 0.000000 0.000000 -1.000000
vn 0.000000 0.000000 -1.000000
vn -0.579043 0.815297 0.000000
vn -0.579043 0.815297 0.000000
vn -0.579043 0.815297 0.000000
vn -0.579043 0.815297 0.000000
vn 0.000000 0.000000 1.000000
vn 0.000000 0.000000 1.000000
vn 0.000000 0.000000 1.000000
vn 0.000000 0.000000 1.000000
vn 0.000000 0.000000 1.000000
vn 0.000000 0.000000 1.000000
vn 0.000000 0.000000 1.000000
vn 0.000000 0.000000 1.000000
vn 0.579043 0.815297 0.000000
vn 0.579043 0.815297 0.000000
vn 0.579043 0.815297 0.000000
vn 0.579043 0.815297 0.000000
vn -1.000000 0.000000 0.000000
vn -1.000000 0.000000 0.000000
vn -1.000000 0.000000 0.000000
vn -1.000000 0.000000 0.000000
vn 1.000000 0.000000 0.000000
vn 1.000000 0.000000 0.000000
vn 1.000000 0.000000 0.000000
vn 1.000000 0.000000 0.000000
vn 0.579043 -0.815297 0.000000
vn 0.579043 -0.815297 0.000000
vn 0.579043 -0.815297 0.000000
vn 0.579043 -0.815297 0.000000
vn 0.000000 -1.000000 0.000000
vn 0.000000 -1.000000 0.000000
vn 0.000000 -1.000000 0.000000
vn 0.000000 -1.000000 0.000000
vn -0.579043 -0.815297 0.000000
vn -0.579043 -0.815297 0.000000
vn -0.579043 -0.815297 0.000000
vn -0.579043 -0.815297 0.000000
vn -0.707106 -0.707108 0.000000
vn -0.707106 -0.707108 0.000000
vn -0.707106 -0.707108 0.000000
vn -0.707106 -0.707108 0.000000
vn 0.000000 -1.000000 0.000000
vn 0.000000 -1.000000 0.000000
vn 0.000000 -1.000000 0.000000
vn 0.000000 -1.000000 0.000000
vn 0.707106 -0.707108 0.000000
vn 0.707106 -0.707108 0.000000
vn 0.707106 -0.707108 0.000000
vn 0.707106 -0.707108 0.000000
vn 1.000000 -0.000000 0.000000
vn 1.000000 -0.000000 0.000000
vn 1.000000 -0.000000 0.000000
vn 1.000000 -0.000000 0.000000
vn 0.707107 0.707107 0.000000
vn 0.707107 0.707107 0.000000
vn 0.707107 0.707107 0.000000
vn 0.707107 0.707107 0.000000
vn 0.000000 1.000000 0.000000
vn 0.000000 1.000000 0.000000
vn 0.000000 1.000000 0.000000
vn 0.000000 1.000000 0.000000
vn -0.707107 0.707107 0.000000
vn -0.707107 0.707107 0.000000
vn -0.707107 0.707107 0.000000
vn -0.707107 0.707107 0.000000
vn -1.000000 -0.000000 0.000000
vn -1.000000 -0.000000 0.000000
vn -1.000000 -0.000000 0.000000
vn -1.000000 -0.000000 0.000000
vn -0.190162 0.245236 0.950630
vn -0.176730 0.245863 0.953057
vn 0.176730 0.245863 0.953057
vn 0.190162 0.245236 0.950630
vn 0.000000 0.249795 0.968299
vn 0.000000 0.249795 0.968299
vn 0.000000 0.249795 0.968299
vn 0.000000 0.249795 0.968299
vn 0.000000 0.249795 0.968299
vn 0.000000 0.249795 0.968299
vn 0.000000 0.249795 0.968299
vn 0.000000 0.249795 0.968299
vn 0.000000 1.000000 0.000000
vn 0.000000 1.000000 0.000000
vn 0.000000 1.000000 0.000000
vn 0.000000 1.000000 0.000000
vn 0.000000 1.000000 0.000000
vn 0.000000 1.000000 0.000000
vn 0.000000 1.000000 0.000000
vn 0.000000 1.000000 0.000000
vn -0.402134 0.228707 0.886556
vn -0.402134 0.228707 0.886556
vn 0.000000 -1.000000 0.000000
vn 0.000000 -1.000000 0.000000
vn 0.000000 -1.000000 0.000000
vn 0.000000 -1.000000 0.000000
vn 0.000000 -1.000000 0.000000
vn 0.000000 -1.000000 0.000000
vn 0.000000 -1.000000 0.000000
vn 0.000000 -1.000000 0.000000
vn 0.402134 0.228707 0.886556
vn 0.402134 0.228707 0.886556
vn -1.000000 -0.000000 0.000000
vn -1.000000 -0.000000 0.000000
vn -1.000000 -0.000000 0.000000
vn -1.000000 -0.000000 0.000000
vn 1.000000 0.000000 0.000000
vn 1.000000 0.000000 0.000000
vn 1.000000 0.000000 0.000000
vn 1.000000 0.000000 0.000000
vn -0.223462 -0.243477 -0.943813
vn -0.236717 -0.242694 -0.940779
vn -0.402133 -0.228707 -0.886556
vn -0.402133 -0.228707 -0.886557
vn 0.223462 -0.243477 -0.943813
vn 0.236717 -0.242694 -0.940779
vn 0.000000 -0.249794 -0.968299
vn 0.000000 -0.249794 -0.968299
vn 0.000000 -0.249794 -0.968299
vn 0.000000 -0.249794 -0.968299
vn 0.000000 -0.249794 -0.968299
vn 0.000000 -0.249794 -0.968299
vn 0.000000 -0.249794 -0.968299
vn 0.000000 -0.249794 -0.968299
vn 0.402133 -0.228707 -0.886556
vn 0.402133 -0.228707 -0.886557
s off
g pCube6
usemtl initialShadingGroup
f 1/141/1 2/142/2 3/143/3 4/144/4 5/145/5 6/146/6 7/147/7 8/148/8
s 1
f 8/1/9 9/2/10 10/3/11 1/4/12
s 2
f 2/9/13 1/4/14 10/3/15 11/10/16
s 3
f 11/81/17 12/82/18 3/83/19 2/84/20
s 4
f 13/16/21 4/15/22 3/19/23 12/20/24
s 5
f 14/13/25 5/14/26 4/15/27 13/16/28
s 6
f 15/17/29 6/18/30 5/14/31 14/13/32
s 7
f 15/94/33 16/87/34 7/88/35 6/98/36 17/89/37 18/90/38 19/91/39 20/92/40 21/93/41 22/95/42 23/96/43 24/97/44
s 8
f 8/1/45 7/5/46 16/6/47 9/2/48
s 1
f 25/7/49 10/3/11 9/2/10 26/8/50
s 3
f 12/82/18 11/81/17 27/85/51 28/86/52
s 5
f 29/21/53 14/13/25 13/16/28 30/22/54
s 7
f 16/87/34 15/94/33 31/99/55 32/100/56
s 8
f 26/8/57 9/2/48 16/6/47 32/11/58
s 2
f 27/12/59 11/10/16 10/3/15 25/7/60
s 4
f 30/22/61 13/16/21 12/20/24 28/24/62
s 6
f 31/23/63 15/17/29 14/13/32 29/21/64
s off
f 20/149/65 33/150/66 34/151/67 21/152/68
f 19/28/69 35/27/70 33/31/71 20/32/72
f 36/101/73 37/102/74 38/103/75 39/104/76 40/105/77 34/106/78 33/107/79 35/108/80
f 21/37/81 34/38/82 40/34/83 22/33/84
f 18/25/85 36/26/86 35/27/87 19/28/88
f 17/29/89 37/30/90 36/26/91 18/25/92
f 24/153/93 38/154/94 37/155/95 17/156/96
f 23/36/97 39/35/98 38/39/99 24/40/100
f 22/33/101 40/34/102 39/35/103 23/36/104
f 41/109/105 42/110/106 43/111/107 44/112/108
s 9
f 44/157/109 45/158/110 46/159/111 47/160/112 48/161/113 49/162/114 50/163/115 51/164/116 52/165/117 53/166/118 54/167/119
f 55/168/120 41/169/121 44/157/109 54/167/119 56/170/122 57/171/123 58/172/124 50/163/115 49/162/114
s off
f 59/43/125 42/47/126 41/48/127 55/44/128
f 60/173/129 61/174/130 62/175/131 63/176/132 64/177/133 43/178/134 42/179/135 59/180/136
f 43/55/137 64/52/138 45/51/139 44/56/140
f 49/41/141 60/42/142 59/43/143 55/44/144
f 63/49/145 46/50/146 45/51/147 64/52/148
f 63/49/149 62/53/150 47/54/151 46/50/152
f 61/113/153 48/114/154 47/115/155 62/116/156
f 61/45/157 60/42/158 49/41/159 48/46/160
f 65/69/161 51/70/162 50/66/163 66/65/164
f 51/117/165 65/118/166 67/119/167 52/120/168
f 68/60/169 53/59/170 52/63/171 67/64/172
f 69/57/173 54/58/174 53/59/175 68/60/176
f 70/61/177 56/62/178 54/58/179 69/57/180
f 71/121/181 57/122/182 56/123/183 70/124/184
f 72/68/185 58/67/186 57/71/187 71/72/188
f 66/65/189 50/66/190 58/67/191 72/68/192
s 10
f 73/181/193 74/182/194 75/183/195 76/184/196 65/185/197 66/186/198 72/187/199 71/188/200 70/189/201 69/190/202 68/191/203 67/192/204
s off
f 77/125/205 73/126/206 76/127/207 78/128/208 79/129/209 80/130/210 81/131/211 82/132/212
s 10
f 83/193/213 74/182/194 73/181/193 77/194/214
s off
f 84/133/215 85/134/216 86/135/217 87/136/218 88/137/219 75/138/220 74/139/221 83/140/222
s 10
f 76/184/196 75/183/195 88/195/223 78/196/224
s off
f 84/73/225 83/74/226 77/75/227 82/76/228
f 88/77/229 87/78/230 79/79/231 78/80/232
s 11
f 86/197/233 80/198/234 79/199/235 87/200/236
f 80/198/234 86/197/233 85/201/237 81/202/238 31/203/239 29/204/240 30/205/241 28/206/242 27/207/243 25/208/244 26/209/245 32/210/246
f 82/211/247 81/202/238 85/201/237 84/212/248
